<svg xmlns="http://www.w3.org/2000/svg" xmlns:xlink="http://www.w3.org/1999/xlink" version="1.1" width="1000" height="1000" viewBox="0 0 1000 1000" xml:space="preserve">
<rect x="0" y="0" width="100%" height="100%" fill="rgba(255,255,255,0)"/>
<g transform="matrix(1 0 0 1 500 500)" id="637517">
<path style="stroke: none; stroke-width: 1; stroke-dasharray: none; stroke-linecap: butt; stroke-dashoffset: 0; stroke-linejoin: miter; stroke-miterlimit: 4; is-custom-font: none; font-file-url: none; fill: rgb(255,255,255); fill-rule: nonzero; opacity: 1;" vector-effect="non-scaling-stroke" transform=" translate(-224, -256)" d="M 384 336 H 192 c -8.8 0 -16 -7.2 -16 -16 V 64 c 0 -8.8 7.2 -16 16 -16 l 140.1 0 L 400 115.9 V 320 c 0 8.8 -7.2 16 -16 16 z M 192 384 H 384 c 35.3 0 64 -28.7 64 -64 V 115.9 c 0 -12.7 -5.1 -24.9 -14.1 -33.9 L 366.1 14.1 c -9 -9 -21.2 -14.1 -33.9 -14.1 H 192 c -35.3 0 -64 28.7 -64 64 V 320 c 0 35.3 28.7 64 64 64 z M 64 128 c -35.3 0 -64 28.7 -64 64 V 448 c 0 35.3 28.7 64 64 64 H 256 c 35.3 0 64 -28.7 64 -64 V 416 H 272 v 32 c 0 8.8 -7.2 16 -16 16 H 64 c -8.8 0 -16 -7.2 -16 -16 V 192 c 0 -8.8 7.2 -16 16 -16 H 96 V 128 H 64 z" stroke-linecap="round"/>
</g>
</svg>