<svg xmlns="http://www.w3.org/2000/svg" xmlns:xlink="http://www.w3.org/1999/xlink" version="1.1" width="1000" height="1000" viewBox="0 0 1000 1000" xml:space="preserve">
<rect x="0" y="0" width="100%" height="100%" fill="rgba(255,255,255,0)"/>
<g transform="matrix(-1.9591 0 0 -1.9591 500.0098 500.0094)" id="505087">
<path style="stroke: none; stroke-width: 1; stroke-dasharray: none; stroke-linecap: butt; stroke-dashoffset: 0; stroke-linejoin: miter; stroke-miterlimit: 4; is-custom-font: none; font-file-url: none; fill: rgb(255,255,255); fill-rule: nonzero; opacity: 1;" vector-effect="non-scaling-stroke" transform=" translate(-263.9875, -255.9933)" d="M 463.5 224 H 472 c 13.3 0 24 -10.7 24 -24 V 72 c 0 -9.7 -5.8 -18.5 -14.8 -22.2 s -19.3 -1.7 -26.2 5.2 L 413.4 96.6 c -87.6 -86.5 -228.7 -86.2 -315.8 1 c -87.5 87.5 -87.5 229.3 0 316.8 s 229.3 87.5 316.8 0 c 12.5 -12.5 12.5 -32.8 0 -45.3 s -32.8 -12.5 -45.3 0 c -62.5 62.5 -163.8 62.5 -226.3 0 s -62.5 -163.8 0 -226.3 c 62.2 -62.2 162.7 -62.5 225.3 -1 L 327 183 c -6.9 6.9 -8.9 17.2 -5.2 26.2 s 12.5 14.8 22.2 14.8 H 463.5 z" stroke-linecap="round"/>
</g>
</svg>